# xmcd CD database file
#
# Track frame offsets:
#	300
#	11500
#	21125
#	27153
#	37440
#	54490
#	67499
#	76525
#	93481
#	105502
#	112104
#	121890
#
# Disc length: 1763 seconds
#
# Revision: 0
# Processed by: cddbd v1.5.2PL0 Copyright (c) Steve Scherf et al.
# Submitted via: jetAudio 7
#
DISCID=9d06df0c
DTITLE=Various Artist - Bluegrass and Country
DYEAR=1900
DGENRE=Country
TTITLE0=Its a Lonesome Road
TTITLE1=Midnite Ramble
TTITLE2=He'll Set Your Feilds On Fire
TTITLE3=I Saw The Light
TTITLE4=Its Your Love
TTITLE5=Moonshine Holler
TTITLE6=Beautiful Brown Eyes
TTITLE7=Fourth Of July
TTITLE8=Dream Of A Miners Child
TTITLE9=Dickinson County Breakdown
TTITLE10=How Mountain Girls Can Love
TTITLE11=Here Today Gone Tommorow
EXTD=
EXTT0=
EXTT1=
EXTT2=
EXTT3=
EXTT4=
EXTT5=
EXTT6=
EXTT7=
EXTT8=
EXTT9=
EXTT10=
EXTT11=
PLAYORDER=
